<svg xmlns="http://www.w3.org/2000/svg" version="1.1" viewBox="0 0 1200 800" width="1200" height="800">
<rect fill="rgb(255,255,255)" x="0" y="0" width="1200" height="800"/><defs/><!--ITEM: Upload 1--><g transform="translate(-11.0 -11.0) rotate(0.0 403.5 403.5)  scale(12.609375 12.609375)"><svg width="64.0" height="64.0" viewBox="0.0 0.0 64.0 64.0"><linearGradient id="BW7iLVDCVUe49Pa_ojLHja-i1" x1="32" x2="32" y1="9" y2="54.015" gradientUnits="userSpaceOnUse"><stop offset="0" stop-color="#1a6dff" fill="#000000"/><stop offset="1" stop-color="#c822ff" fill="#000000"/></linearGradient><path fill="url(#BW7iLVDCVUe49Pa_ojLHja-i1)" d="M50,55H14c-2.76,0-5-2.24-5-5V14c0-2.76,2.24-5,5-5h36c2.76,0,5,2.24,5,5v36 C55,52.76,52.76,55,50,55z M14,11c-1.65,0-3,1.35-3,3v36c0,1.65,1.35,3,3,3h36c1.65,0,3-1.35,3-3V14c0-1.65-1.35-3-3-3H14z"/><linearGradient id="BW7iLVDCVUe49Pa_ojLHjb-i1" x1="32" x2="32" y1="17.234" y2="36.704" gradientUnits="userSpaceOnUse"><stop offset="0" stop-color="#6dc7ff" fill="#000000"/><stop offset="1" stop-color="#e6abff" fill="#000000"/></linearGradient><path fill="url(#BW7iLVDCVUe49Pa_ojLHjb-i1)" d="M18.979,28.606l2.763,2.171l7.418-5.804C29.979,24.343,30.984,24,32.002,24 c1.015,0,2.016,0.341,2.82,0.959l7.437,5.818l2.763-2.171c0.63-0.495,0.992-1.238,0.992-2.04s-0.362-1.545-0.992-2.04 l-11.418-8.972c-0.943-0.742-2.263-0.742-3.206,0l-11.418,8.972c-0.63,0.495-0.992,1.238-0.992,2.04S18.348,28.111,18.979,28.606z"/><linearGradient id="BW7iLVDCVUe49Pa_ojLHjc-i1" x1="32" x2="32" y1="17.234" y2="36.704" gradientUnits="userSpaceOnUse"><stop offset="0" stop-color="#6dc7ff" fill="#000000"/><stop offset="1" stop-color="#e6abff" fill="#000000"/></linearGradient><path fill="url(#BW7iLVDCVUe49Pa_ojLHjc-i1)" d="M33.606,37.448l3.73-2.914L32,30.359l-5.336,4.175l3.732,2.916 c0.472,0.366,1.037,0.549,1.603,0.549C32.565,37.999,33.132,37.815,33.606,37.448z"/><linearGradient id="BW7iLVDCVUe49Pa_ojLHjd-i1" x1="32" x2="32" y1="9" y2="54.015" gradientUnits="userSpaceOnUse"><stop offset="0" stop-color="#1a6dff" fill="#000000"/><stop offset="1" stop-color="#c822ff" fill="#000000"/></linearGradient><path fill="url(#BW7iLVDCVUe49Pa_ojLHjd-i1)" d="M31.998,49c-0.565,0-1.129-0.182-1.601-0.544l-11.416-8.932 c-0.63-0.482-0.996-1.221-0.996-2.024s0.366-1.543,1.005-2.031l11.401-8.921c0.95-0.731,2.268-0.73,3.211-0.005l11.417,8.933 c0.629,0.481,0.996,1.22,0.996,2.023c0,0.801-0.365,1.54-1.001,2.028l-11.405,8.924C33.133,48.817,32.565,49,31.998,49z M32.002,27.989c-0.134,0-0.27,0.042-0.38,0.127l-11.403,8.922c-0.205,0.156-0.234,0.356-0.234,0.462s0.029,0.306,0.224,0.454 l11.419,8.934c0.212,0.164,0.53,0.165,0.75-0.005l11.413-8.929c0.195-0.149,0.224-0.349,0.224-0.454s-0.029-0.306-0.224-0.454 l-11.418-8.934C32.266,28.03,32.135,27.989,32.002,27.989z"/></svg></g><!--ITEM: Text 2--><g transform="translate(487.0 -135.0) rotate(0.0 1039.5 540.5)  scale(1.0 1.0)"><svg width="2079.0" height="1081.0" viewBox="0.0 0.0 2079.0 1081.0"><g transform="translate(235 235)">
      <path fill="#000000A3" stroke="#000000A3" d="M79.20 181.97L14.10 181.97L14.10 33.21L79.20 33.21Q98.70 33.21 111.86 36.39Q125.02 39.56 133.01 47.55Q141 55.54 144.53 69.76Q148.05 83.97 148.05 106.30L148.05 106.30Q148.05 129.56 144.53 144.37Q141 159.17 133.01 167.40Q125.02 175.62 111.86 178.80Q98.70 181.97 79.20 181.97L79.20 181.97ZM73.79 64.94L73.79 64.94L51.70 64.94L51.70 150.24L73.79 150.24Q87.42 150.24 95.29 147.19Q103.17 144.13 106.57 134.73Q109.98 125.33 109.98 106.30L109.98 106.30Q109.98 88.20 106.57 79.39Q103.17 70.58 95.29 67.76Q87.42 64.94 73.79 64.94ZM272.37 152.12L272.37 178.21Q265.79 180.56 254.15 182.32Q242.52 184.08 226.54 184.08L226.54 184.08Q206.33 184.08 192.11 178.80Q177.90 173.51 170.61 160.70Q163.33 147.89 163.33 125.10L163.33 125.10Q163.33 94.08 177.54 80.21Q191.76 66.35 221.61 66.35L221.61 66.35Q242.99 66.35 255.33 72.46Q267.67 78.57 272.95 89.73Q278.24 100.89 278.24 116.17L278.24 116.17Q278.24 120.63 277.89 125.80Q277.54 130.97 276.60 135.91L276.60 135.91L275.66 136.85L198.34 136.85Q199.99 147.19 208.09 150.48Q216.20 153.77 234.53 153.77L234.53 153.77Q246.75 153.77 254.86 153.18Q262.97 152.59 271.43 151.42L271.43 151.42L272.37 152.12ZM197.64 112.17L245.58 112.17Q245.58 106.53 243.81 102.42Q242.05 98.31 236.88 96.08Q231.71 93.84 221.61 93.84L221.61 93.84Q206.80 93.84 202.22 98.90Q197.64 103.95 197.64 112.17L197.64 112.17ZM406.08 67.52L406.08 68.23L368.72 181.97L321.72 181.97L286.47 67.99L286.47 67.52L328.76 67.52Q333.70 85.85 338.05 107.24Q342.39 128.62 345.92 148.36L345.92 148.36L346.86 148.36Q350.38 128.62 354.73 107.24Q359.08 85.85 364.01 67.52L364.01 67.52L406.08 67.52Z" stroke-width="0"/><path fill="#000000A3" stroke="#000000A3" d="M166.62 236.88L166.62 236.88L204.92 236.88L173.43 385.63L127.61 385.63Q120.32 360.49 115.03 336.52Q109.75 312.55 105.05 285.29L105.05 285.29L104.58 285.29Q99.17 312.55 93.88 336.52Q88.59 360.49 82.02 385.63L82.02 385.63L36.19 385.63L4.70 236.88L43.01 236.88Q46.53 253.33 49.35 269.07Q52.17 284.82 54.87 301.15Q57.58 317.49 60.40 336.52L60.40 336.52L60.87 336.52Q64.39 317.49 67.68 301.15Q70.97 284.82 74.50 269.07Q78.02 253.33 82.02 236.88L82.02 236.88L127.61 236.88Q133.01 261.79 138.30 286.70Q143.59 311.61 148.75 336.52L148.75 336.52L149.23 336.52Q153.69 311.61 157.92 286.70Q162.15 261.79 166.62 236.88ZM324.54 355.79L324.54 381.88Q317.96 384.23 306.32 385.99Q294.69 387.75 278.71 387.75L278.71 387.75Q258.50 387.75 244.28 382.46Q230.06 377.18 222.78 364.37Q215.50 351.56 215.50 328.76L215.50 328.76Q215.50 297.75 229.71 283.88Q243.93 270.01 273.77 270.01L273.77 270.01Q295.16 270.01 307.50 276.13Q319.84 282.24 325.12 293.40Q330.41 304.56 330.41 319.83L330.41 319.83Q330.41 324.30 330.06 329.47Q329.71 334.64 328.76 339.57L328.76 339.57L327.83 340.51L250.51 340.51Q252.16 350.86 260.26 354.14Q268.37 357.44 286.70 357.44L286.70 357.44Q298.92 357.44 307.03 356.85Q315.13 356.26 323.60 355.08L323.60 355.08L324.54 355.79ZM249.81 315.84L297.75 315.84Q297.75 310.20 295.98 306.09Q294.22 301.98 289.05 299.74Q283.88 297.51 273.77 297.51L273.77 297.51Q258.97 297.51 254.39 302.56Q249.81 307.62 249.81 315.84L249.81 315.84Z" stroke-width="0"/><path fill="#000000A3" stroke="#000000A3" d="M79.20 589.30L14.10 589.30L14.10 440.55L79.20 440.55Q98.70 440.55 111.86 443.72Q125.02 446.89 133.01 454.88Q141 462.87 144.53 477.09Q148.05 491.31 148.05 513.63L148.05 513.63Q148.05 536.90 144.53 551.70Q141 566.51 133.01 574.73Q125.02 582.96 111.86 586.13Q98.70 589.30 79.20 589.30L79.20 589.30ZM73.79 472.27L73.79 472.27L51.70 472.27L51.70 557.58L73.79 557.58Q87.42 557.58 95.29 554.52Q103.17 551.47 106.57 542.07Q109.98 532.67 109.98 513.63L109.98 513.63Q109.98 495.54 106.57 486.72Q103.17 477.91 95.29 475.09Q87.42 472.27 73.79 472.27ZM163.33 532.90L163.33 532.90Q163.33 501.41 176.72 487.55Q190.12 473.68 222.08 473.68L222.08 473.68Q243.46 473.68 256.38 479.79Q269.31 485.90 275.07 498.94Q280.83 511.99 280.83 532.90L280.83 532.90Q280.83 553.58 275.07 566.51Q269.31 579.43 256.38 585.42Q243.46 591.42 222.08 591.42L222.08 591.42Q190.12 591.42 176.72 577.67Q163.33 563.92 163.33 532.90ZM222.08 559.22L222.08 559.22Q235.71 559.22 240.52 553.23Q245.34 547.24 245.34 532.20L245.34 532.20Q245.34 517.86 240.52 511.63Q235.71 505.41 222.08 505.41L222.08 505.41Q208.92 505.41 203.86 511.63Q198.81 517.86 198.81 532.20L198.81 532.20Q198.81 547.24 203.86 553.23Q208.92 559.22 222.08 559.22Z" stroke-width="0"/>
    </g>
  </svg></g></svg>