<svg xmlns="http://www.w3.org/2000/svg" version="1.1" viewBox="0 0 400 250" width="400" height="250">
<rect fill="rgb(255,255,255)" x="0" y="0" width="400" height="250"/><defs/><!--ITEM: Upload 1--><g transform="translate(-28.0 -19.0) rotate(0.0 148.0 148.0)  scale(4.625 4.625)"><svg width="64.0" height="64.0" viewBox="0.0 0.0 64.0 64.0"><linearGradient id="BW7iLVDCVUe49Pa_ojLHja-i1" x1="32" x2="32" y1="9" y2="54.015" gradientUnits="userSpaceOnUse"><stop offset="0" stop-color="#1a6dff" fill="#000000"/><stop offset="1" stop-color="#c822ff" fill="#000000"/></linearGradient><path fill="url(#BW7iLVDCVUe49Pa_ojLHja-i1)" d="M50,55H14c-2.76,0-5-2.24-5-5V14c0-2.76,2.24-5,5-5h36c2.76,0,5,2.24,5,5v36 C55,52.76,52.76,55,50,55z M14,11c-1.65,0-3,1.35-3,3v36c0,1.65,1.35,3,3,3h36c1.65,0,3-1.35,3-3V14c0-1.65-1.35-3-3-3H14z"/><linearGradient id="BW7iLVDCVUe49Pa_ojLHjb-i1" x1="32" x2="32" y1="17.234" y2="36.704" gradientUnits="userSpaceOnUse"><stop offset="0" stop-color="#6dc7ff" fill="#000000"/><stop offset="1" stop-color="#e6abff" fill="#000000"/></linearGradient><path fill="url(#BW7iLVDCVUe49Pa_ojLHjb-i1)" d="M18.979,28.606l2.763,2.171l7.418-5.804C29.979,24.343,30.984,24,32.002,24 c1.015,0,2.016,0.341,2.82,0.959l7.437,5.818l2.763-2.171c0.63-0.495,0.992-1.238,0.992-2.04s-0.362-1.545-0.992-2.04 l-11.418-8.972c-0.943-0.742-2.263-0.742-3.206,0l-11.418,8.972c-0.63,0.495-0.992,1.238-0.992,2.04S18.348,28.111,18.979,28.606z"/><linearGradient id="BW7iLVDCVUe49Pa_ojLHjc-i1" x1="32" x2="32" y1="17.234" y2="36.704" gradientUnits="userSpaceOnUse"><stop offset="0" stop-color="#6dc7ff" fill="#000000"/><stop offset="1" stop-color="#e6abff" fill="#000000"/></linearGradient><path fill="url(#BW7iLVDCVUe49Pa_ojLHjc-i1)" d="M33.606,37.448l3.73-2.914L32,30.359l-5.336,4.175l3.732,2.916 c0.472,0.366,1.037,0.549,1.603,0.549C32.565,37.999,33.132,37.815,33.606,37.448z"/><linearGradient id="BW7iLVDCVUe49Pa_ojLHjd-i1" x1="32" x2="32" y1="9" y2="54.015" gradientUnits="userSpaceOnUse"><stop offset="0" stop-color="#1a6dff" fill="#000000"/><stop offset="1" stop-color="#c822ff" fill="#000000"/></linearGradient><path fill="url(#BW7iLVDCVUe49Pa_ojLHjd-i1)" d="M31.998,49c-0.565,0-1.129-0.182-1.601-0.544l-11.416-8.932 c-0.63-0.482-0.996-1.221-0.996-2.024s0.366-1.543,1.005-2.031l11.401-8.921c0.95-0.731,2.268-0.73,3.211-0.005l11.417,8.933 c0.629,0.481,0.996,1.22,0.996,2.023c0,0.801-0.365,1.54-1.001,2.028l-11.405,8.924C33.133,48.817,32.565,49,31.998,49z M32.002,27.989c-0.134,0-0.27,0.042-0.38,0.127l-11.403,8.922c-0.205,0.156-0.234,0.356-0.234,0.462s0.029,0.306,0.224,0.454 l11.419,8.934c0.212,0.164,0.53,0.165,0.75-0.005l11.413-8.929c0.195-0.149,0.224-0.349,0.224-0.454s-0.029-0.306-0.224-0.454 l-11.418-8.934C32.266,28.03,32.135,27.989,32.002,27.989z"/></svg></g><!--ITEM: Text 2--><g transform="translate(155.0 -67.0) rotate(0.0 382.0 200.0)  scale(1.0 1.0)"><svg width="764.0" height="400.0" viewBox="0.0 0.0 764.0 400.0"><g transform="translate(87 87)">
      <path fill="#000000A3" stroke="#000000A3" d="M29.32 67.37L5.22 67.37L5.22 12.30L29.32 12.30Q36.54 12.30 41.41 13.47Q46.28 14.65 49.24 17.60Q52.20 20.56 53.51 25.82Q54.81 31.09 54.81 39.35L54.81 39.35Q54.81 47.97 53.51 53.45Q52.20 58.93 49.24 61.97Q46.28 65.02 41.41 66.19Q36.54 67.37 29.32 67.37L29.32 67.37ZM27.32 24.04L27.32 24.04L19.14 24.04L19.14 55.62L27.32 55.62Q32.36 55.62 35.28 54.49Q38.19 53.36 39.45 49.88Q40.72 46.40 40.72 39.35L40.72 39.35Q40.72 32.65 39.45 29.39Q38.19 26.13 35.28 25.09Q32.36 24.04 27.32 24.04ZM100.83 56.32L100.83 65.98Q98.40 66.85 94.09 67.50Q89.78 68.15 83.87 68.15L83.87 68.15Q76.39 68.15 71.12 66.19Q65.86 64.24 63.16 59.49Q60.47 54.75 60.47 46.31L60.47 46.31Q60.47 34.83 65.73 29.70Q70.99 24.56 82.04 24.56L82.04 24.56Q89.96 24.56 94.53 26.83Q99.09 29.09 101.05 33.22Q103.01 37.35 103.01 43.01L103.01 43.01Q103.01 44.66 102.88 46.57Q102.75 48.49 102.40 50.32L102.40 50.32L102.05 50.66L73.43 50.66Q74.04 54.49 77.04 55.71Q80.04 56.93 86.83 56.93L86.83 56.93Q91.35 56.93 94.35 56.71Q97.35 56.49 100.49 56.06L100.49 56.06L100.83 56.32ZM73.17 41.53L90.92 41.53Q90.92 39.44 90.26 37.92Q89.61 36.40 87.70 35.57Q85.78 34.74 82.04 34.74L82.04 34.74Q76.56 34.74 74.86 36.61Q73.17 38.48 73.17 41.53L73.17 41.53ZM150.34 25.00L150.34 25.26L136.50 67.37L119.10 67.37L106.05 25.17L106.05 25.00L121.71 25.00Q123.54 31.78 125.15 39.70Q126.76 47.62 128.06 54.93L128.06 54.93L128.41 54.93Q129.72 47.62 131.33 39.70Q132.94 31.78 134.76 25.00L134.76 25.00L150.34 25.00Z" stroke-width="0"/><path fill="#000000A3" stroke="#000000A3" d="M61.68 87.70L61.68 87.70L75.86 87.70L64.21 142.77L47.24 142.77Q44.54 133.46 42.59 124.58Q40.63 115.71 38.89 105.62L38.89 105.62L38.72 105.62Q36.71 115.71 34.76 124.58Q32.80 133.46 30.36 142.77L30.36 142.77L13.40 142.77L1.74 87.70L15.92 87.70Q17.23 93.79 18.27 99.62Q19.31 105.44 20.31 111.49Q21.32 117.54 22.36 124.58L22.36 124.58L22.53 124.58Q23.84 117.54 25.06 111.49Q26.27 105.44 27.58 99.62Q28.88 93.79 30.36 87.70L30.36 87.70L47.24 87.70Q49.24 96.92 51.20 106.14Q53.16 115.36 55.07 124.58L55.07 124.58L55.25 124.58Q56.90 115.36 58.46 106.14Q60.03 96.92 61.68 87.70ZM120.15 131.72L120.15 141.38Q117.71 142.25 113.40 142.90Q109.10 143.55 103.18 143.55L103.18 143.55Q95.70 143.55 90.44 141.59Q85.17 139.64 82.48 134.89Q79.78 130.15 79.78 121.71L79.78 121.71Q79.78 110.23 85.04 105.10Q90.31 99.96 101.36 99.96L101.36 99.96Q109.27 99.96 113.84 102.23Q118.41 104.49 120.36 108.62Q122.32 112.75 122.32 118.41L122.32 118.41Q122.32 120.06 122.19 121.97Q122.06 123.89 121.71 125.72L121.71 125.72L121.37 126.06L92.74 126.06Q93.35 129.89 96.35 131.11Q99.35 132.33 106.14 132.33L106.14 132.33Q110.66 132.33 113.67 132.11Q116.67 131.89 119.80 131.46L119.80 131.46L120.15 131.72ZM92.48 116.93L110.23 116.93Q110.23 114.84 109.58 113.32Q108.92 111.80 107.01 110.97Q105.10 110.14 101.36 110.14L101.36 110.14Q95.87 110.14 94.18 112.01Q92.48 113.88 92.48 116.93L92.48 116.93Z" stroke-width="0"/><path fill="#000000A3" stroke="#000000A3" d="M29.32 218.17L5.22 218.17L5.22 163.10L29.32 163.10Q36.54 163.10 41.41 164.27Q46.28 165.45 49.24 168.40Q52.20 171.36 53.51 176.62Q54.81 181.89 54.81 190.15L54.81 190.15Q54.81 198.77 53.51 204.25Q52.20 209.73 49.24 212.77Q46.28 215.82 41.41 216.99Q36.54 218.17 29.32 218.17L29.32 218.17ZM27.32 174.84L27.32 174.84L19.14 174.84L19.14 206.42L27.32 206.42Q32.36 206.42 35.28 205.29Q38.19 204.16 39.45 200.68Q40.72 197.20 40.72 190.15L40.72 190.15Q40.72 183.45 39.45 180.19Q38.19 176.93 35.28 175.89Q32.36 174.84 27.32 174.84ZM60.47 197.29L60.47 197.29Q60.47 185.63 65.42 180.50Q70.38 175.36 82.22 175.36L82.22 175.36Q90.13 175.36 94.92 177.63Q99.70 179.89 101.83 184.72Q103.97 189.54 103.97 197.29L103.97 197.29Q103.97 204.94 101.83 209.73Q99.70 214.51 94.92 216.73Q90.13 218.95 82.22 218.95L82.22 218.95Q70.38 218.95 65.42 213.86Q60.47 208.77 60.47 197.29ZM82.22 207.03L82.22 207.03Q87.26 207.03 89.04 204.81Q90.83 202.59 90.83 197.03L90.83 197.03Q90.83 191.72 89.04 189.41Q87.26 187.11 82.22 187.11L82.22 187.11Q77.34 187.11 75.47 189.41Q73.60 191.72 73.60 197.03L73.60 197.03Q73.60 202.59 75.47 204.81Q77.34 207.03 82.22 207.03Z" stroke-width="0"/>
    </g>
  </svg></g></svg>